<svg width="1600" height="1171" xmlns="http://www.w3.org/2000/svg">
 <g>
  <title>Layer 1</title>
  <g fill="none" id="svg_1">
   <path d="m112.72977,0c0,132.39795 -107.33181,239.72976 -239.72976,239.72976l0,-239.72976l239.72976,0z" fill="#11cdef" id="svg_3"/>
   <path d="m120.05825,723.32256l0,-119.86488c0,-66.19898 -53.66591,-119.86488 -119.86488,-119.86488l0,119.86488c0,66.19898 53.6659,119.86488 119.86488,119.86488z" fill="#172b4d" id="svg_6"/>
   <path d="m1553.98172,121.18936l-119.86488,0c-66.19898,0 -119.86488,53.6659 -119.86488,119.86488l119.86488,0c66.19897,0 119.86488,-53.66591 119.86488,-119.86488z" fill="#172b4d" id="svg_7"/>
   <path d="m1554.72976,359.86487l-119.86488,0c-66.19898,0 -119.86488,-53.66543 -119.86488,-119.86488l119.86488,0c66.19898,0 119.86488,53.66542 119.86488,119.86488z" fill="#f0f1f1" id="svg_9"/>
   <path d="m1343,43.5c0,34.5175 -27.9825,62.5 -62.5,62.5s-62.5,-27.9825 -62.5,-62.5s27.9825,-62.5 62.5,-62.5s62.5,27.9825 62.5,62.5z" fill="#fff" id="svg_11"/>
   <path d="m1422,63.5c0,34.5175 -27.9825,62.5 -62.5,62.5s-62.5,-27.9825 -62.5,-62.5s27.9825,-62.5 62.5,-62.5s62.5,27.9825 62.5,62.5z" fill="#172b4d" id="svg_12"/>
   <path d="m1650.72976,119.86488l-119.86488,0c-66.19898,0 -119.86488,-53.66541 -119.86488,-119.86488l119.86488,0c66.19898,0 119.86488,53.66545 119.86488,119.86488z" fill="#f0f1f1" id="svg_14"/>
   <path d="m274.57137,1060.10185l-101.68367,-63.51518c-56.15785,-35.07818 -73.63594,-108.38364 -39.03797,-163.73063l101.68367,63.51519c56.15786,35.07817 73.63594,108.38364 39.03798,163.73062l-0.00001,0z" fill="#172b4d" id="svg_15"/>
   <path d="m287.45529,0l0,239.72976c0,132.39796 -107.33181,239.72977 -239.72976,239.72977l0,-239.72977c0,-132.39795 107.33181,-239.72976 239.72976,-239.72976z" fill="#f0f1f1" id="svg_17"/>
   <path d="m120.05825,244.89635l0,119.25892c0,66.53364 -53.66591,120.47085 -119.86488,120.47085l0,-119.25892c0,-66.53605 53.6659,-120.47085 119.86488,-120.47085z" fill="#5e72e4" id="svg_18"/>
   <path d="m355.65474,774.98846l-119.25891,0c-66.53364,0 -120.47085,53.6659 -120.47085,119.86488l119.25891,0c66.53605,0 120.47085,-53.6659 120.47085,-119.86488z" fill="#11cdef" id="svg_19"/>
   <path d="m164.98125,1025.60136l48.47272,31.47855c27.04256,17.56165 34.80012,53.61093 17.32681,80.51746l-48.47272,-31.47855c-27.04354,-17.56228 -34.80012,-53.61093 -17.32681,-80.51746z" fill="#fb6340" id="svg_20"/>
   <path d="m1358.99858,1104.15808l68.4048,-97.69218c38.16175,-54.50062 113.05909,-67.90146 167.28613,-29.93128l-68.40481,97.69219c-38.16175,54.50062 -113.05909,67.90145 -167.28612,29.93127z" fill="#172b4d" id="svg_21"/>
   <path d="m1388.97268,884.0035c0,-39.66375 32.15185,-71.8156 71.8156,-71.8156c39.66376,0 71.8156,32.15185 71.8156,71.8156c0,39.66376 -32.15184,71.8156 -71.8156,71.8156c-39.66375,0 -71.8156,-32.15184 -71.8156,-71.8156z" fill="#11cdef" id="svg_22"/>
   <path d="m1425.13881,884.0035c0,-19.68801 15.96146,-35.64947 35.64947,-35.64947s35.64947,15.96146 35.64947,35.64947c0,19.68802 -15.96146,35.64947 -35.64947,35.64947s-35.64947,-15.96145 -35.64947,-35.64947z" fill="#f0f1f1" id="svg_23"/>
   <path d="m1220.54186,920.16963c0,-19.68801 15.96145,-35.64947 35.64947,-35.64947c19.68801,0 35.64947,15.96146 35.64947,35.64947s-15.96146,35.64947 -35.64947,35.64947c-19.68802,0 -35.64947,-15.96146 -35.64947,-35.64947z" fill="#11cdef" id="svg_24"/>
   <path d="m1494.37111,762.07198c0,-19.68801 15.96146,-35.64946 35.64947,-35.64946c19.68802,0 35.64947,15.96145 35.64947,35.64946c0,19.68802 -15.96145,35.64947 -35.64947,35.64947c-19.68801,0 -35.64947,-15.96145 -35.64947,-35.64947z" fill="#fb6340" id="svg_25"/>
   <path d="m512,180.64947c0,-19.68801 15.96146,-35.64947 35.64947,-35.64947c19.68801,0 35.64947,15.96146 35.64947,35.64947c0,19.68801 -15.96146,35.64947 -35.64947,35.64947c-19.68801,0 -35.64947,-15.96146 -35.64947,-35.64947z" fill="#f0f1f1" id="svg_26"/>
   <path d="m1441,240.64947c0,-19.68801 15.96146,-35.64947 35.64947,-35.64947s35.64947,15.96146 35.64947,35.64947c0,19.68801 -15.96146,35.64947 -35.64947,35.64947s-35.64947,-15.96146 -35.64947,-35.64947z" fill="#5e72e4" id="svg_27"/>
   <path d="m71.4923,875.73696c0,19.68801 -15.96074,35.64947 -35.64947,35.64947c-19.68872,0 -35.64946,-15.96146 -35.64946,-35.64947c0,-19.68801 15.96074,-35.64947 35.64946,-35.64947c19.68873,0 35.64947,15.96146 35.64947,35.64947z" fill="#11cdef" id="svg_28"/>
   <path d="m1620.72976,596.72976c-132.39795,0 -239.72976,-107.33181 -239.72976,-239.72976l239.72976,0l0,239.72976z" fill="#f0f1f1" id="svg_29"/>
   <path d="m84.92544,781.70502c0,19.68802 -15.96074,35.64947 -35.64947,35.64947c-19.68873,0 -35.64947,-15.96145 -35.64947,-35.64947c0,-19.68801 15.96074,-35.64946 35.64947,-35.64946c19.68873,0 35.64947,15.96145 35.64947,35.64946z" fill="#fb6340" id="svg_30"/>
   <g fill="#11cdef" id="svg_31">
    <path d="m1530,798.03286c0,-17.69163 14.34123,-32.03286 32.03286,-32.03286c17.69162,0 32.03285,14.34123 32.03285,32.03286s-14.34123,32.03285 -32.03285,32.03285c-17.69163,0 -32.03286,-14.34123 -32.03286,-32.03285z" id="svg_32"/>
    <path d="m154.15774,729.52247c0,-17.69163 14.3417,-32.03286 32.03286,-32.03286c17.69115,0 32.03285,14.34123 32.03285,32.03286s-14.3417,32.03286 -32.03285,32.03286c-17.69116,0 -32.03286,-14.34123 -32.03286,-32.03286z" id="svg_33"/>
    <path d="m124,49.03286c0,-17.69163 14.3417,-32.03286 32.03286,-32.03286c17.69115,0 32.03285,14.34123 32.03285,32.03286s-14.3417,32.03285 -32.03285,32.03285c-17.69116,0 -32.03286,-14.34123 -32.03286,-32.03285z" id="svg_34"/>
   </g>
   <path d="m1493.9999,633.99787c0,-34.24 27.75787,-61.99787 62.00028,-61.99787c34.24,0 61.99787,27.75787 61.99787,61.99787c0,34.24241 -27.75787,62.00028 -61.99787,62.00028l-62.00028,0l0,-62.00028z" fill="#f0f1f1" id="svg_35"/>
   <path d="m1404.99815,120.0003c0,34.24 -27.75787,61.99787 -62.00028,61.99787c-34.24,0 -61.99787,-27.75787 -61.99787,-61.99787c0,-34.24241 27.75787,-62.00028 61.99787,-62.00028l62.00028,0l0,62.00028z" fill="#11cdef" id="svg_37"/>
   <path d="m115,553.5c0,-57.16098 46.33902,-103.5 103.5,-103.5s103.5,46.33902 103.5,103.5s-46.33902,103.5 -103.5,103.5s-103.5,-46.33902 -103.5,-103.5z" fill="#f0f1f1" id="svg_40"/>
   <path d="m161,553.5c0,-31.75562 25.74438,-57.5 57.5,-57.5s57.5,25.74438 57.5,57.5s-25.74438,57.5 -57.5,57.5s-57.5,-25.74438 -57.5,-57.5z" fill="#172b4d" id="svg_41"/>
   <path d="m1493.99988,359.99988c0,67.34206 54.58946,121.93152 121.93152,121.93152l0,-121.93152l-121.93152,0z" fill="#5e72e4" id="svg_42"/>
   <g fill="#11cdef" id="svg_43">
    <path d="m1457.47574,583.50549c0,-19.68801 15.96146,-35.64946 35.64947,-35.64946c19.68802,0 35.64947,15.96145 35.64947,35.64946c0,19.68802 -15.96145,35.64947 -35.64947,35.64947c-19.68801,0 -35.64947,-15.96145 -35.64947,-35.64947z" id="svg_44"/>
    <path d="m1506,285.64947c0,-19.68801 15.96146,-35.64947 35.64947,-35.64947s35.64947,15.96146 35.64947,35.64947c0,19.68801 -15.96146,35.64947 -35.64947,35.64947s-35.64947,-15.96146 -35.64947,-35.64947z" id="svg_45"/>
    <path d="m3.86486,931c66.19898,0 119.86488,53.6659 119.86488,119.86488c0,66.19898 -53.6659,119.86488 -119.86488,119.86488s-119.86488,-53.6659 -119.86488,-119.86488c0,-66.19898 53.6659,-119.86488 119.86488,-119.86488z" id="svg_46"/>
   </g>
   <polyline stroke-linecap="round" id="svg_2" points="622,68.5 623,68.5 625,69.5 627,72.5 634,77.5 642,82.5 652,89.5 662,96.5 673,103.5 681,107.5 689,113.5 693,116.5 696,118.5 699,120.5 700,121.5 701,121.5 701,122.5 702,123.5 704,127.5 707,131.5 712,138.5 716,148.5 717,157.5 716,166.5 713,172.5 707,177.5 700,183.5 695,186.5 " opacity="NaN" fill="none"/>
   <polyline stroke-linecap="round" id="svg_4" points="543,171.5 545,171.5 548,172.5 560,173.5 573,176.5 583,178.5 586,180.5 586,181.5 586,182.5 586,183.5 587,187.5 587,189.5 587,196.5 587,201.5 586,206.5 583,210.5 582,214.5 581,215.5 581,216.5 " opacity="NaN" fill="none"/>
   <polyline stroke-linecap="round" id="svg_5" points="1334,132.5 1334,132.5 1334,132.5 " fill="none"/>
  </g>
 </g>

</svg>